<svg id="Livello_1" data-name="Livello 1" xmlns="http://www.w3.org/2000/svg" xmlns:xlink="http://www.w3.org/1999/xlink" viewBox="0 0 1082.96 1082.96"><defs><style>.cls-1{fill:url(#Sfumatura_senza_nome_37);}.cls-2{fill:url(#Sfumatura_senza_nome_41);}.cls-3{fill:url(#Sfumatura_senza_nome_31);}.cls-4{fill:url(#Sfumatura_senza_nome_28);}.cls-5{fill:url(#Sfumatura_senza_nome_26);}.cls-6{fill:url(#Sfumatura_senza_nome_26-2);}.cls-7{fill:url(#Sfumatura_senza_nome_26-3);}.cls-8{fill:url(#Sfumatura_senza_nome_26-4);}.cls-9{fill:url(#Sfumatura_senza_nome_26-5);}.cls-10{fill:url(#Sfumatura_senza_nome_26-6);}.cls-11{fill:url(#Sfumatura_senza_nome_68);}.cls-12{fill:url(#Sfumatura_senza_nome_61);}.cls-13{fill:url(#Sfumatura_senza_nome_56);}.cls-14{fill:url(#Sfumatura_senza_nome_53);}.cls-15{fill:url(#Sfumatura_senza_nome_50);}.cls-16{fill:url(#Sfumatura_senza_nome_48);}.cls-17{fill:url(#Sfumatura_senza_nome_46);}.cls-18{fill:url(#Sfumatura_senza_nome_44);}.cls-19{fill:url(#Sfumatura_senza_nome_13);}.cls-20{fill:#1a1a1a;}</style><linearGradient id="Sfumatura_senza_nome_37" x1="118.87" y1="542.12" x2="118.87" y2="589.68" gradientUnits="userSpaceOnUse"><stop offset="0" stop-color="#fff" stop-opacity="0.2"/><stop offset="0.96" stop-color="#0a0a0a" stop-opacity="0.97"/><stop offset="1"/></linearGradient><linearGradient id="Sfumatura_senza_nome_41" x1="129.86" y1="563.34" x2="149.16" y2="563.34" xlink:href="#Sfumatura_senza_nome_37"/><linearGradient id="Sfumatura_senza_nome_31" x1="139.89" y1="554.28" x2="172.89" y2="554.28" xlink:href="#Sfumatura_senza_nome_37"/><linearGradient id="Sfumatura_senza_nome_28" x1="147.47" y1="539.81" x2="190.22" y2="539.81" xlink:href="#Sfumatura_senza_nome_37"/><linearGradient id="Sfumatura_senza_nome_26" x1="151.68" y1="521.68" x2="199.05" y2="521.68" xlink:href="#Sfumatura_senza_nome_37"/><linearGradient id="Sfumatura_senza_nome_26-2" x1="152.01" y1="499.38" x2="199.38" y2="499.38" xlink:href="#Sfumatura_senza_nome_37"/><linearGradient id="Sfumatura_senza_nome_26-3" x1="148.42" y1="481.03" x2="191.17" y2="481.03" xlink:href="#Sfumatura_senza_nome_37"/><linearGradient id="Sfumatura_senza_nome_26-4" x1="157.85" y1="485.36" x2="157.85" y2="446.91" xlink:href="#Sfumatura_senza_nome_37"/><linearGradient id="Sfumatura_senza_nome_26-5" x1="141.3" y1="479.42" x2="141.3" y2="433.63" xlink:href="#Sfumatura_senza_nome_37"/><linearGradient id="Sfumatura_senza_nome_26-6" x1="120.78" y1="477.07" x2="120.78" y2="429.51" xlink:href="#Sfumatura_senza_nome_37"/><linearGradient id="Sfumatura_senza_nome_68" x1="109.79" y1="455.85" x2="90.48" y2="455.85" xlink:href="#Sfumatura_senza_nome_37"/><linearGradient id="Sfumatura_senza_nome_61" x1="99.75" y1="464.91" x2="66.75" y2="464.91" xlink:href="#Sfumatura_senza_nome_37"/><linearGradient id="Sfumatura_senza_nome_56" x1="92.17" y1="479.37" x2="49.43" y2="479.37" xlink:href="#Sfumatura_senza_nome_37"/><linearGradient id="Sfumatura_senza_nome_53" x1="87.96" y1="497.5" x2="40.59" y2="497.5" xlink:href="#Sfumatura_senza_nome_37"/><linearGradient id="Sfumatura_senza_nome_50" x1="71.09" y1="504.63" x2="54.59" y2="533.21" xlink:href="#Sfumatura_senza_nome_37"/><linearGradient id="Sfumatura_senza_nome_48" x1="69.85" y1="524.88" x2="69.85" y2="551.43" xlink:href="#Sfumatura_senza_nome_37"/><linearGradient id="Sfumatura_senza_nome_46" x1="81.79" y1="533.82" x2="81.79" y2="572.27" xlink:href="#Sfumatura_senza_nome_37"/><linearGradient id="Sfumatura_senza_nome_44" x1="98.34" y1="539.81" x2="98.34" y2="585.56" xlink:href="#Sfumatura_senza_nome_37"/><radialGradient id="Sfumatura_senza_nome_13" cx="122.35" cy="509.43" r="18.65" gradientUnits="userSpaceOnUse"><stop offset="0"/><stop offset="0.3" stop-color="#111" stop-opacity="0.95"/><stop offset="0.56" stop-color="#474747" stop-opacity="0.78"/><stop offset="0.81" stop-color="#a0a0a0" stop-opacity="0.5"/><stop offset="1" stop-color="#fff" stop-opacity="0.2"/></radialGradient></defs><title>Senza titolo-3</title><path class="cls-1" d="M118.58,542.39l-2.74,47.29h6.06l-2.74-47.29A.29.29,0,0,0,118.58,542.39Z"/><path class="cls-2" d="M129.87,540.84l13.6,45.37,5.69-2.07-18.75-43.5A.29.29,0,0,0,129.87,540.84Z"/><path class="cls-3" d="M140,535.52l28.3,38,4.64-3.89-32.5-34.47A.29.29,0,0,0,140,535.52Z"/><path class="cls-4" d="M147.6,527.07l39.59,26,3-5.25-42.33-21.27A.29.29,0,0,0,147.6,527.07Z"/><path class="cls-5" d="M151.91,516.51,198,527.42l1.05-6-47-5.51A.29.29,0,0,0,151.91,516.51Z"/><path class="cls-6" d="M152.34,505.12l47-5.51-1-6-46.09,10.91A.29.29,0,0,0,152.34,505.12Z"/><path class="cls-7" d="M148.85,494.27,191.17,473l-3-5.25-39.58,26A.29.29,0,0,0,148.85,494.27Z"/><path class="cls-8" d="M141.86,485.27l32.49-34.47-4.64-3.89-28.3,38A.3.3,0,0,0,141.86,485.27Z"/><path class="cls-9" d="M132.19,479.24,151,435.7l-5.7-2.07-13.61,45.42A.29.29,0,0,0,132.19,479.24Z"/><path class="cls-10" d="M121.07,476.79l2.74-47.28h-6.06l2.74,47.28A.29.29,0,0,0,121.07,476.79Z"/><path class="cls-11" d="M109.77,478.35,96.17,433,90.48,435l18.75,43.5A.29.29,0,0,0,109.77,478.35Z"/><path class="cls-12" d="M99.69,483.67l-28.29-38-4.65,3.9L99.25,484A.29.29,0,0,0,99.69,483.67Z"/><path class="cls-13" d="M92,492.11l-39.58-26-3,5.24,42.32,21.28A.29.29,0,0,0,92,492.11Z"/><path class="cls-14" d="M87.74,502.67l-46.1-10.91-1,6,47.05,5.51A.29.29,0,0,0,87.74,502.67Z"/><path class="cls-15" d="M87.31,514.06l-47.05,5.51,1.05,6,46.1-10.91A.29.29,0,0,0,87.31,514.06Z"/><path class="cls-16" d="M90.8,524.91,48.47,546.18l3,5.25,39.59-26A.29.29,0,0,0,90.8,524.91Z"/><path class="cls-17" d="M97.79,533.92l-32.5,34.46,4.64,3.89,28.3-38A.29.29,0,0,0,97.79,533.92Z"/><path class="cls-18" d="M107.43,540,88.69,583.48l5.69,2.08L108,540.18A.29.29,0,0,0,107.43,540Z"/><path class="cls-19" d="M140.59,509.92c-12.71,2.38-15.37,5-17.75,17.75a.5.5,0,0,1-1,0c-2.38-12.71-5-15.37-17.75-17.75a.5.5,0,0,1,0-1c12.71-2.38,15.37-5,17.75-17.75a.5.5,0,0,1,1,0c2.38,12.71,5,15.37,17.75,17.75A.5.5,0,0,1,140.59,509.92Z"/><path class="cls-20" d="M257.29,559.56a16.91,16.91,0,0,1,.69-5.37,3.82,3.82,0,0,1,1.76-2.45l10.73-3.37-2.76,3.21V469.72l2.92,3.22-13.34-3.22a14.8,14.8,0,0,1,.61-4.52,10.72,10.72,0,0,1,2.46-3.91h37.86a19.82,19.82,0,0,1-.61,5.36c-.41,1.43-1,2.25-1.84,2.45L284,472.48l3.52-3.22v81.87l-3.68-3.22,14.41,3.22a16.48,16.48,0,0,1-.53,4.36,11,11,0,0,1-2.38,4.07Zm78,1.68a18.88,18.88,0,0,1-7.12-1.45,26.74,26.74,0,0,1-7.59-5,82.18,82.18,0,0,1-8.82-9.42q-4.83-5.91-10.5-14.49t-12.88-20.24L324,468l3.37,4.91L311,469.72a16.09,16.09,0,0,1,.61-4.83,9.65,9.65,0,0,1,2.15-3.6h33.88q0,7.2-3.83,8.12l-12.42,3.53,7.05-5.67L301,512l3.22-7.36q4.76,7.05,10.5,14.57t11.81,14.48q6,7,11.88,12.73a92.54,92.54,0,0,0,10.73,9.27,22.4,22.4,0,0,1-6.44,4.07A19.09,19.09,0,0,1,335.32,561.24Z"/><path class="cls-20" d="M354.64,559.56a18.53,18.53,0,0,1,.61-5.52,3.34,3.34,0,0,1,1.84-2.3l9.66-3.53-1.68,2.3V456.69l1.84,2.3-10-2.3q-2.29-.62-2.3-7.52,5.82-.92,10.81-1.53A84.45,84.45,0,0,1,375.8,447q8.58,0,8.58,9.81v93.21l-1.84-2.14,13.34,3.22a14.8,14.8,0,0,1-.61,4.67,12.29,12.29,0,0,1-2.3,3.76Z"/><path class="cls-20" d="M421.17,561.4a16.46,16.46,0,0,1-11.8-4.37,15,15,0,0,1-4.6-11.42,19.46,19.46,0,0,1,5.75-14.34q5.75-5.74,16.94-8.2l20.24-4.75-2,2.3V510.5q0-7.81-2.22-11.27t-7.28-3.45q-6,0-9.2,4t-3.22,12a8,8,0,0,1-3,1.77,12.35,12.35,0,0,1-4.21.69,8.44,8.44,0,0,1-6-2,6.91,6.91,0,0,1-2.15-5.36,12.9,12.9,0,0,1,4-9.28,27.58,27.58,0,0,1,11-6.44A48.13,48.13,0,0,1,439,488.73q13,0,19.62,6t6.59,18.09v32.35a6.65,6.65,0,0,0,1,4.06,4.07,4.07,0,0,0,3.45,1.3,9.12,9.12,0,0,0,3.3-.69,13.19,13.19,0,0,0,2.83-1.45l1.54,6a25.56,25.56,0,0,1-8.05,5.06,24,24,0,0,1-9.13,2q-6.12,0-9.65-3.45t-3.53-9.43H446A33.38,33.38,0,0,1,434.67,558,29.43,29.43,0,0,1,421.17,561.4Zm9.66-11a18.44,18.44,0,0,0,9-2.61,24.72,24.72,0,0,0,7.74-6.59L446,545V524.91l2.45.31-15.63,3.83a14.35,14.35,0,0,0-8.05,4.21,10.91,10.91,0,0,0-2.84,7.59,9.65,9.65,0,0,0,2.45,6.9A8.43,8.43,0,0,0,430.83,550.36Z"/><path class="cls-20" d="M485.71,559.56q0-6.75,2.46-7.82l8.74-3.53-1.69,2.61V500.07l1.84,2.3-9.05-2.3c-.71-.2-1.28-.94-1.68-2.22a18,18,0,0,1-.62-5.29q7.52-1.23,11.5-1.69a61.35,61.35,0,0,1,6.59-.46c3.58,0,6.08.77,7.52,2.3s2.14,4.2,2.14,8v5.21l-1.38-1.53h2.3a31.76,31.76,0,0,1,9.2-11.35q5.67-4.29,11.19-4.29c4.3,0,7.46,1,9.51,2.91a10.48,10.48,0,0,1,3.06,8,9.37,9.37,0,0,1-2.68,6.67,8.81,8.81,0,0,1-6.67,2.84,12.87,12.87,0,0,0-4.06-5.14,9.18,9.18,0,0,0-5.14-1.45,14.47,14.47,0,0,0-8,2.91,28,28,0,0,0-7.36,7.36l1.08-3.68V551l-2.15-3.37,14.1,3.53a14.66,14.66,0,0,1-.61,4.59,11.83,11.83,0,0,1-2.3,3.84Z"/><path class="cls-20" d="M566.66,561.4a16.44,16.44,0,0,1-11.8-4.37,15,15,0,0,1-4.6-11.42A19.42,19.42,0,0,1,556,531.27q5.75-5.74,16.94-8.2l20.23-4.75-2,2.3V510.5q0-7.81-2.22-11.27c-1.49-2.3-3.91-3.45-7.28-3.45q-6,0-9.2,4t-3.22,12a8,8,0,0,1-3,1.77,12.41,12.41,0,0,1-4.22.69,8.46,8.46,0,0,1-6-2,6.94,6.94,0,0,1-2.14-5.36,12.89,12.89,0,0,1,4-9.28,27.65,27.65,0,0,1,11-6.44,48.19,48.19,0,0,1,15.57-2.37q13,0,19.62,6t6.59,18.09v32.35a6.65,6.65,0,0,0,1,4.06,4.07,4.07,0,0,0,3.45,1.3,9,9,0,0,0,3.29-.69,13.3,13.3,0,0,0,2.84-1.45l1.53,6a25.45,25.45,0,0,1-8,5.06,24,24,0,0,1-9.12,2q-6.14,0-9.66-3.45t-3.52-9.43h-.92A33.32,33.32,0,0,1,580.15,558,29.39,29.39,0,0,1,566.66,561.4Zm9.66-11a18.44,18.44,0,0,0,9-2.61,24.94,24.94,0,0,0,7.74-6.59L591.5,545V524.91l2.45.31-15.64,3.83a14.38,14.38,0,0,0-8,4.21,11,11,0,0,0-2.83,7.59,9.65,9.65,0,0,0,2.45,6.9A8.42,8.42,0,0,0,576.32,550.36Z"/><path class="cls-20" d="M666.77,559.56a16.91,16.91,0,0,1,.69-5.37,3.79,3.79,0,0,1,1.76-2.45L680,548.37l-2.76,3.21V469.72l2.92,3.22-13.34-3.22a14.8,14.8,0,0,1,.61-4.52,10.82,10.82,0,0,1,2.45-3.91h38.94a19.65,19.65,0,0,1-.61,5.44c-.41,1.38-1,2.17-1.84,2.37l-11.8,3.38,2.45-3.22v79.26l-1.53-1.69,36,2.76-2,2.61,4.14-19.32a14.76,14.76,0,0,1,4.68.69,13.93,13.93,0,0,1,4.06,2.22v23.77Z"/><path class="cls-20" d="M770.1,561.4A16.46,16.46,0,0,1,758.29,557a15.07,15.07,0,0,1-4.6-11.42,19.46,19.46,0,0,1,5.75-14.34q5.74-5.74,16.94-8.2l20.24-4.75-2,2.3V510.5q0-7.81-2.23-11.27t-7.28-3.45q-6,0-9.2,4t-3.22,12a7.88,7.88,0,0,1-3,1.77,12.35,12.35,0,0,1-4.21.69,8.44,8.44,0,0,1-6-2,7,7,0,0,1-2.15-5.36,12.9,12.9,0,0,1,4-9.28,27.58,27.58,0,0,1,11-6.44,48.17,48.17,0,0,1,15.56-2.37q13,0,19.62,6t6.6,18.09v32.35a6.72,6.72,0,0,0,1,4.06,4.1,4.1,0,0,0,3.45,1.3,9.12,9.12,0,0,0,3.3-.69,13.19,13.19,0,0,0,2.83-1.45l1.54,6a25.56,25.56,0,0,1-8.05,5.06,24,24,0,0,1-9.12,2q-6.13,0-9.66-3.45t-3.53-9.43h-.92A33.28,33.28,0,0,1,783.59,558,29.43,29.43,0,0,1,770.1,561.4Zm9.65-11a18.41,18.41,0,0,0,9-2.61,24.87,24.87,0,0,0,7.75-6.59L794.93,545V524.91l2.46.31-15.64,3.83a14.35,14.35,0,0,0-8,4.21,11,11,0,0,0-2.84,7.59,9.62,9.62,0,0,0,2.46,6.9A8.41,8.41,0,0,0,779.75,550.36Z"/><path class="cls-20" d="M868.21,561.4A70.06,70.06,0,0,1,854,559.86a62.84,62.84,0,0,1-13.64-4.44V456.69L842,459l-8.74-2.3q-2.61-.62-2.61-7.52c5-.81,8.87-1.38,11.58-1.68a60.57,60.57,0,0,1,6.66-.46q5.07,0,7.36,2.07c1.54,1.38,2.3,3.65,2.3,6.82v48.6l-.61-1.38h1.84a31.38,31.38,0,0,1,11.42-10.5,29.77,29.77,0,0,1,14.49-3.91,22.62,22.62,0,0,1,13.41,4.06,26.18,26.18,0,0,1,8.9,11.42,44,44,0,0,1,3.14,17.33,40.93,40.93,0,0,1-5.21,20.92,35.8,35.8,0,0,1-14.8,13.95Q881.55,561.39,868.21,561.4Zm3.22-8.59q9.66,0,14.34-6.9t4.67-21q0-12.27-3.6-18.17t-11-5.9a15.6,15.6,0,0,0-7.44,1.76,23.49,23.49,0,0,0-6,4.6,61.38,61.38,0,0,0-5.13,6.21l2-4.45v41.71l-2-3.53a27.12,27.12,0,0,0,6.9,4.29A18.8,18.8,0,0,0,871.43,552.81Z"/><path class="cls-20" d="M950.38,561.4q-12.57,0-20.46-4.76t-7.9-11.8a7.82,7.82,0,0,1,2.53-6.21,9.53,9.53,0,0,1,6.52-2.22,11.67,11.67,0,0,1,7.81,2.6q0,8,3.15,11.81t9.58,3.83q5.52,0,8.74-2.68a9,9,0,0,0,3.22-7.28,8.55,8.55,0,0,0-2.3-6.21,18.67,18.67,0,0,0-5.9-4q-3.61-1.61-7.9-3.14A94.18,94.18,0,0,1,937.12,527a25.43,25.43,0,0,1-8.58-6.75,16.51,16.51,0,0,1-3.45-10.81,17.75,17.75,0,0,1,7.66-15.1q7.66-5.6,21-5.59A45.55,45.55,0,0,1,967,490.49a22,22,0,0,1,9,5,10,10,0,0,1,3.3,7.36,7.26,7.26,0,0,1-2.53,5.83,9.74,9.74,0,0,1-6.52,2.14,9.57,9.57,0,0,1-6.59-2.45q0-6.12-3.07-9.5t-8.73-3.38a11.36,11.36,0,0,0-7.29,2.15,7.06,7.06,0,0,0-2.68,5.83A7.72,7.72,0,0,0,944.1,509a16.34,16.34,0,0,0,5.75,3.68q3.6,1.46,7.59,3,5.65,2,11.26,4.6a27.11,27.11,0,0,1,9.28,6.9q3.67,4.29,3.68,11.5a19.5,19.5,0,0,1-3.83,12.11,24.47,24.47,0,0,1-10.89,7.82A45.31,45.31,0,0,1,950.38,561.4Z"/></svg>